<svg id="edit" xmlns="http://www.w3.org/2000/svg" xmlns:xlink="http://www.w3.org/1999/xlink" width="41" height="41" viewBox="0 0 41 41">
  <defs>
    <radialGradient id="radial-gradient" cx="0.49" cy="0.6" r="0.378" gradientTransform="translate(0)" gradientUnits="objectBoundingBox">
      <stop offset="0" stop-color="#bae1e5"/>
      <stop offset="0.34" stop-color="#bae1e5"/>
      <stop offset="0.89" stop-color="#c4e4e5"/>
    </radialGradient>
  </defs>
  <path id="Path_436" data-name="Path 436" d="M20.5,0A20.5,20.5,0,1,1,0,20.5,20.5,20.5,0,0,1,20.5,0Z" fill="url(#radial-gradient)"/>
  <path id="Path_126" data-name="Path 126" d="M1160.133,214.464a1.822,1.822,0,0,0-1.822-.462,12.954,12.954,0,0,0-6.569,5.241.793.793,0,0,0,.34,1.132.917.917,0,0,0,1.168-.3,11.853,11.853,0,0,1,6.561-4.516A.618.618,0,0,0,1160.133,214.464Z" transform="translate(-1145.633 -209.761)" fill="#fff"/>
  <path id="Path_127" data-name="Path 127" d="M1137.06,253.081l-1.233,2.881a.858.858,0,0,0,1.579.674l1.231-2.881a.858.858,0,0,0-1.577-.674Z" transform="translate(-1132.977 -240.603)" fill="#fff"/>
  <path id="Path_306" data-name="Path 306" d="M1191.409,259.169a.68.68,0,0,0-.67.67v9.81c0,.03-.026.1,0,.049a.439.439,0,0,1-.022.1c-.008.032-.03.1-.047.156v.016a.9.9,0,0,0-.065.134c-.03.053-.063.1-.1.152l-.01.014h0c-.035.038-.069.077-.105.113l-.063.063h0c-.032.02-.061.042-.091.063l-.113.065-.038.02-.271.075h-15.982c-.047-.012-.1-.018-.14-.03l-.089-.03h0l-.028-.014h-.012c-.055-.018-.035-.014,0,0l-.032-.016c-.045-.024-.087-.051-.13-.077l-.054-.036-.038-.024c-.063-.065-.148-.166-.164-.182h0l-.012-.02a1.3,1.3,0,0,1-.071-.113c-.026-.045-.047-.089-.071-.134a.124.124,0,0,1-.02-.059c-.018-.051-.032-.1-.047-.156s-.055-.188-.022-.1h0v-14.2a.742.742,0,0,0,.014-.085c.02-.1.075-.2.091-.289l.022-.045q.043-.08.093-.156l.036-.055.012-.016c.028-.03.063-.065.069-.069l.1-.091a.158.158,0,0,0,.018-.018l.018-.01c.042-.028.085-.057.13-.081l.065-.034c-.016,0-.044.01.01,0h0l.075-.024c.057-.018.114-.028.172-.042H1183a.67.67,0,0,0,0-1.34h-9.042a2.474,2.474,0,0,0-2.324,1.866,7.088,7.088,0,0,0-.085,1.721v12.506a4.508,4.508,0,0,0,.014.526,2.509,2.509,0,0,0,1.972,2.257,8.954,8.954,0,0,0,1.437.043h14.676a2.429,2.429,0,0,0,1.964-1.034,2.708,2.708,0,0,0,.476-1.63v-9.514a.678.678,0,0,0-.678-.692ZM1173.56,254.513Zm-.443.334-.026.038a.141.141,0,0,1,.026-.047Zm-.261.632a.075.075,0,0,1,0-.022c.01-.117.006-.024,0,.014Zm.259,14.808c.014.016.028.032.024.03a.171.171,0,0,1-.024-.038Zm.156.164c.012.01.071.049.067.049a.29.29,0,0,1-.067-.057Zm16.506.235h-.018a.029.029,0,0,1,.018-.008ZM1189.809,270.685Zm.227-.065-.02.01s.008-.018.02-.022Zm.257-.15c-.022.018-.041.036-.047.032a.234.234,0,0,1,.046-.045Z" transform="translate(-1161.514 -241.023)" fill="#003a63"/>
  <path id="Path_307" data-name="Path 307" d="M1197.254,268.724a4.288,4.288,0,0,0-.285.925l-.747,2.66a.945.945,0,0,0,.2.968.836.836,0,0,0,.607.229,1.216,1.216,0,0,0,.379-.063l.544-.178c.429-.14,1.13-.37,1.555-.516l.534-.18a3.721,3.721,0,0,0,1.109-.532l7.692-8.012.034-.036-.365-.33h0l-2.7-2.447h0l-.729-.66c-.034.038-.071.077-.107.113l-7.518,7.832A1.4,1.4,0,0,0,1197.254,268.724Zm2.468,2.913-.532.18-.5.168-1.1-.925.322-1.146.16-.571,2.33,2.024A5.622,5.622,0,0,1,1199.722,271.637Z" transform="translate(-1181.157 -246.949)" fill="#003a63"/>
  <path id="Path_308" data-name="Path 308" d="M1245.169,246.086l2.721,2.468h0l.362.33.2-.219.022-.022c.02-.022.043-.045.063-.069l1.5-1.567a2.257,2.257,0,0,0,.607-1.751,2.691,2.691,0,0,0-.83-1.733,2.481,2.481,0,0,0-3.49-.079l-1.787,1.86-.016.018-.1.1.729.662Z" transform="translate(-1219.651 -232.764)" fill="#003a63"/>
</svg>
